<svg width="120" height="60" viewBox="0 0 120 60" fill="none" xmlns="http://www.w3.org/2000/svg">
<path d="M72.03 26.27C70.33 26.27 69.062 27.105 69.062 29.115C69.062 30.615 69.897 31.68 71.937 31.68C73.667 31.68 74.842 30.66 74.842 29.052C74.842 27.227 73.792 26.27 72.03 26.27ZM68.63 40.46C68.227 40.954 67.826 41.48 67.826 42.085C67.826 43.32 69.401 43.693 71.566 43.693C73.359 43.693 75.801 43.568 75.801 41.9C75.801 40.91 74.626 40.848 73.141 40.755L68.641 40.447L68.63 40.46ZM77.78 26.362C78.335 27.075 78.924 28.062 78.924 29.485C78.924 32.915 76.224 34.925 72.34 34.925C71.34 34.925 70.465 34.8 69.897 34.647L68.877 36.272L71.907 36.457C77.257 36.797 80.407 36.953 80.407 41.062C80.407 44.618 77.287 46.624 71.907 46.624C66.312 46.624 64.18 45.202 64.18 42.749C64.18 41.359 64.8 40.616 65.88 39.595C64.86 39.165 64.52 38.391 64.52 37.557C64.52 36.877 64.86 36.257 65.417 35.682L67.333 33.827C65.818 33.087 64.673 31.477 64.673 29.202C64.673 25.647 67.023 23.206 71.753 23.206C73.083 23.206 73.887 23.329 74.598 23.516H80.626V26.143L77.781 26.359L77.78 26.362ZM86.063 20.744C84.313 20.744 83.281 19.724 83.281 17.96C83.281 16.196 84.301 15.24 86.063 15.24C87.856 15.24 88.876 16.2 88.876 17.96C88.876 19.72 87.856 20.744 86.064 20.744H86.063ZM82.063 39.322V36.882L83.641 36.666C84.073 36.604 84.136 36.511 84.136 36.046V26.96C84.136 26.62 84.043 26.404 83.733 26.31L82.063 25.723L82.403 23.221H88.803V36.051C88.803 36.546 88.833 36.607 89.298 36.671L90.873 36.887V39.325H82.06L82.063 39.322ZM103.11 38.125C101.78 38.775 99.832 39.375 98.07 39.375C94.39 39.375 93 37.893 93 34.398V26.298C93 26.113 93 25.988 92.75 25.988H90.6V23.238C93.32 22.938 94.403 21.568 94.743 18.198H97.68V22.588C97.68 22.803 97.68 22.898 97.928 22.898H102.288V25.988H97.67V33.363C97.67 35.188 98.104 35.898 99.77 35.898C100.636 35.898 101.52 35.682 102.274 35.404L103.109 38.124" fill="#A57600"/>
<path d="M50.67 29.25L32.138 10.72C31.072 9.65305 29.341 9.65305 28.273 10.72L24.426 14.568L29.306 19.448C30.441 19.065 31.741 19.323 32.643 20.225C33.0737 20.6564 33.3744 21.2003 33.5107 21.7944C33.647 22.3885 33.6135 23.009 33.414 23.585L38.118 28.289C39.243 27.897 40.568 28.152 41.478 29.059C41.8823 29.4625 42.1731 29.9654 42.3212 30.517C42.4693 31.0687 42.4694 31.6496 42.3214 32.2013C42.1735 32.753 41.8828 33.256 41.4786 33.6595C41.0743 34.0631 40.5709 34.353 40.019 34.5C39.4676 34.6479 38.887 34.648 38.3356 34.5001C37.7842 34.3523 37.2815 34.0619 36.878 33.6581C35.923 32.7021 35.688 31.298 36.171 30.121L31.796 25.746V37.291C32.096 37.445 32.398 37.648 32.656 37.906C33.926 39.176 33.926 41.2341 32.656 42.5061C32.3541 42.8083 31.9957 43.048 31.6011 43.2116C31.2066 43.3752 30.7836 43.4594 30.3565 43.4594C29.9294 43.4594 29.5064 43.3752 29.1118 43.2116C28.7173 43.048 28.3588 42.8083 28.057 42.5061C26.787 41.2331 26.787 39.176 28.057 37.906C28.3617 37.6015 28.7237 37.3602 29.122 37.196V25.546C28.747 25.386 28.372 25.1521 28.057 24.8461C27.6006 24.3899 27.2903 23.8083 27.1656 23.1751C27.041 22.542 27.1076 21.8862 27.357 21.291L22.545 16.4781L9.82999 29.163C9.31887 29.6765 9.03192 30.3715 9.03192 31.0961C9.03192 31.8206 9.31887 32.5156 9.82999 33.029L28.363 51.559C29.429 52.626 31.16 52.626 32.228 51.559L50.67 33.1161C51.1811 32.6026 51.468 31.9076 51.468 31.1831C51.468 30.4585 51.1811 29.7635 50.67 29.25" fill="#F03C2E"/>
</svg>
