<svg width="223" height="68" viewBox="0 0 223 68" fill="none" xmlns="http://www.w3.org/2000/svg">
<path d="M35 5.66663C18.8854 5.66663 5.83332 18.3458 5.83332 34C5.83001 39.9479 7.75486 45.7458 11.3348 50.5712C14.9147 55.3966 19.9679 59.0043 25.7775 60.8826C27.2358 61.1291 27.7812 60.2791 27.7812 59.534C27.7812 58.8625 27.7433 56.6326 27.7433 54.2583C20.4167 55.5701 18.5208 52.5243 17.9375 50.9291C17.6079 50.1131 16.1875 47.6 14.9479 46.9256C13.9271 46.3958 12.4687 45.084 14.91 45.05C17.2083 45.0131 18.8475 47.1041 19.3958 47.9541C22.0208 52.2381 26.215 51.034 27.8892 50.2916C28.1458 48.45 28.91 47.2118 29.75 46.5035C23.2604 45.7951 16.4792 43.35 16.4792 32.5125C16.4792 29.4298 17.6079 26.8826 19.4687 24.8965C19.1771 24.1881 18.1562 21.284 19.7604 17.3881C19.7604 17.3881 22.2016 16.6458 27.7812 20.2951C30.1556 19.655 32.6088 19.3328 35.0729 19.3375C37.5521 19.3375 40.0312 19.6548 42.3646 20.2923C47.9412 16.609 50.3854 17.391 50.3854 17.391C51.9896 21.2868 50.9687 24.191 50.6771 24.8993C52.535 26.8826 53.6667 29.3958 53.6667 32.5125C53.6667 43.3868 46.8504 45.7951 40.3608 46.5035C41.4167 47.3875 42.3296 49.0875 42.3296 51.7451C42.3296 55.5333 42.2917 58.5791 42.2917 59.5368C42.2917 60.2791 42.84 61.1631 44.2983 60.8798C50.088 58.9809 55.1189 55.3661 58.683 50.5442C62.2471 45.7223 64.165 39.9361 64.1667 34C64.1667 18.3458 51.1146 5.66663 35 5.66663Z" fill="white"/>
<path d="M99.4932 30.0905H86.6255C86.2935 30.0905 86.0241 30.3963 86.0241 30.7725V37.9038C86.0241 38.28 86.2935 38.5861 86.6255 38.5861H91.6452V47.4461C91.6452 47.4461 90.518 47.8816 87.4019 47.8816C83.7255 47.8816 78.5897 46.3589 78.5897 33.558C78.5897 20.7542 83.9375 19.0696 88.9582 19.0696C93.3042 19.0696 95.1765 19.937 96.3678 20.3548C96.7421 20.4849 97.0884 20.0624 97.0884 19.6858L98.5239 12.7956C98.5239 12.6196 98.4713 12.4074 98.294 12.2632C97.8103 11.8722 94.8586 10 87.4019 10C78.8116 10 70 14.1426 70 34.0571C70 53.9723 80.0886 56.94 88.5899 56.94C95.629 56.94 99.8991 53.5303 99.8991 53.5303C100.075 53.4201 100.094 53.1414 100.094 53.0135V30.7725C100.094 30.3963 99.8251 30.0905 99.4932 30.0905ZM165.773 12.4927C165.773 12.1132 165.508 11.8071 165.176 11.8071H157.93C157.6 11.8071 157.33 12.1132 157.33 12.4927C157.33 12.4946 157.332 28.364 157.332 28.364H146.039V12.4927C146.039 12.1132 145.772 11.8071 145.441 11.8071H138.196C137.866 11.8071 137.597 12.1132 137.597 12.4927V55.4672C137.597 55.8463 137.866 56.155 138.196 56.155H145.441C145.772 56.155 146.039 55.8463 146.039 55.4672V37.0855H157.332C157.332 37.0855 157.313 55.4658 157.313 55.4672C157.313 55.8463 157.581 56.155 157.913 56.155H165.175C165.507 56.155 165.772 55.8463 165.773 55.4672V12.4927ZM113.142 18.2383C113.142 15.2811 111.05 12.8914 108.47 12.8914C105.892 12.8914 103.799 15.2811 103.799 18.2383C103.799 21.1922 105.892 23.5885 108.47 23.5885C111.05 23.5885 113.142 21.1922 113.142 18.2383ZM112.567 46.4244V26.5872C112.567 26.2106 112.299 25.9027 111.968 25.9027H104.745C104.414 25.9027 104.118 26.2901 104.118 26.6667V55.0873C104.118 55.9226 104.577 56.1709 105.171 56.1709H111.678C112.392 56.1709 112.567 55.7737 112.567 55.074V46.4244ZM193.464 25.9027H186.275C185.945 25.9027 185.676 26.2106 185.676 26.5897V47.6615C185.676 47.6615 183.85 49.1762 181.257 49.1762C178.665 49.1762 177.977 47.8429 177.977 44.9656V26.5897C177.977 26.2106 177.709 25.9027 177.379 25.9027H170.082C169.753 25.9027 169.483 26.2106 169.483 26.5897V46.3571C169.483 54.9034 173.685 56.9942 179.466 56.9942C184.208 56.9942 188.032 54.0244 188.032 54.0244C188.032 54.0244 188.214 55.5894 188.296 55.7751C188.379 55.9602 188.594 56.147 188.825 56.147L193.468 56.1239C193.797 56.1239 194.067 55.8153 194.067 55.4379L194.064 26.5897C194.064 26.2106 193.796 25.9027 193.464 25.9027ZM210.03 49.1925C207.536 49.1065 205.845 47.8238 205.845 47.8238V34.2147C205.845 34.2147 207.513 33.0553 209.561 32.8478C212.15 32.5851 214.645 33.4716 214.645 40.4724C214.645 47.8549 213.519 49.3118 210.03 49.1925ZM212.866 24.9796C208.782 24.9796 206.005 27.0448 206.005 27.0448V12.4927C206.005 12.1132 205.737 11.8071 205.407 11.8071H198.141C197.811 11.8071 197.542 12.1132 197.542 12.4927V55.4672C197.542 55.8463 197.811 56.155 198.142 56.155H203.183C203.41 56.155 203.582 56.0223 203.709 55.79C203.834 55.559 204.015 53.8086 204.015 53.8086C204.015 53.8086 206.986 57 212.61 57C219.213 57 223 53.2036 223 39.957C223 26.7105 216.952 24.9796 212.866 24.9796ZM133.42 25.8289H127.985C127.985 25.8289 127.977 17.6922 127.977 17.6904C127.977 17.3825 127.837 17.2285 127.523 17.2285H120.116C119.829 17.2285 119.674 17.372 119.674 17.6857V26.096C119.674 26.096 115.962 27.1116 115.711 27.1937C115.461 27.2757 115.277 27.537 115.277 27.8486V33.1337C115.277 33.5139 115.545 33.8204 115.877 33.8204H119.674V46.5346C119.674 55.9783 125.518 56.906 129.461 56.906C131.263 56.906 133.419 56.25 133.775 56.1011C133.99 56.0115 134.115 55.7589 134.115 55.4849L134.121 49.671C134.121 49.2919 133.838 48.9851 133.52 48.9851C133.204 48.9851 132.393 49.1311 131.559 49.1311C128.89 49.1311 127.985 47.724 127.985 45.9028C127.985 44.0831 127.985 33.8204 127.985 33.8204H133.42C133.751 33.8204 134.02 33.5139 134.02 33.1337V26.5138C134.02 26.1347 133.751 25.8289 133.42 25.8289Z" fill="white"/>
</svg>
