<svg width="144" height="201" viewBox="0 0 144 201" fill="none" xmlns="http://www.w3.org/2000/svg">
<path d="M49.5674 107.385C49.5674 107.385 43.687 110.308 53.6596 111.144C65.7033 112.397 72.0707 112.188 85.3658 110.101C85.3658 110.101 88.9449 111.983 93.8042 113.443C63.8836 123.884 26.0404 112.817 49.5674 107.385ZM45.7318 93.8114C45.7318 93.8114 39.3382 97.7801 49.3108 98.614C62.3494 99.6575 72.5812 99.8671 90.2252 96.9462C90.2252 96.9462 92.5292 99.0353 96.3622 100.079C60.3098 108.85 19.906 100.913 45.7318 93.8135V93.8114ZM116.307 117.619C116.307 117.619 120.654 120.542 111.448 122.841C94.3148 127.017 39.5948 128.272 24.2522 122.841C18.8849 120.959 29.1116 118.244 32.434 117.829C35.7591 117.202 37.5473 117.202 37.5473 117.202C31.6669 113.86 -1.57615 124.094 20.6705 127.038C81.7841 135.185 132.161 123.489 116.305 117.641L116.307 117.619ZM52.3793 79.6088C52.3793 79.6088 24.5062 85.0401 42.4041 86.9175C50.0753 87.7515 65.1613 87.5441 79.2262 86.708C90.7331 85.874 102.266 84.2019 102.266 84.2019C102.266 84.2019 98.174 85.6645 95.362 87.1249C66.9548 93.187 12.4887 90.4714 28.0878 84.2062C41.3882 78.9844 52.3793 79.6088 52.3793 79.6088V79.6088ZM102.24 102.373C130.883 90.2597 117.583 78.5653 108.377 80.0279C106.073 80.4449 105.052 80.8619 105.052 80.8619C105.052 80.8619 105.819 79.6088 107.61 79.194C125.764 73.9723 140.086 94.857 101.729 103.002C101.729 103.002 101.986 102.792 102.24 102.375V102.373ZM55.1913 135.367C82.8079 136.83 125 134.533 126.024 123.88C126.024 123.88 123.981 128.056 103.266 131.189C79.742 134.738 50.5885 134.321 33.4577 132.023C33.4577 132.023 37.0368 134.529 55.1939 135.365L55.1913 135.367Z" fill="#4E7896"/>
<path d="M84.8291 10.6915C84.8291 10.6915 100.682 23.8484 69.7431 43.6854C44.9385 59.7654 64.114 68.9558 69.7431 79.395C55.1677 68.7463 44.6871 59.3463 51.8426 50.575C62.352 37.6341 91.2436 31.3688 84.8291 10.6915ZM76.6473 70.628C84.062 77.5197 74.6051 83.7849 74.6051 83.7849C74.6051 83.7849 93.5267 75.8519 84.8343 66.0328C76.9065 56.635 70.7695 52.0398 104.013 36.3746C104.013 36.3746 51.5913 47.0233 76.6525 70.6237L76.6473 70.628Z" fill="#F58219"/>
<path d="M63.4517 180.077V159.613C63.4517 154.391 59.8726 150.842 50.921 150.842C45.8077 150.842 41.4589 151.885 37.6207 153.138L38.8983 156.898C41.7103 156.064 45.2919 155.23 49.1276 155.23C53.9869 155.23 56.2883 156.898 56.2883 160.242V162.958H53.7303C41.4563 162.958 35.8298 166.717 35.8298 172.794C35.8298 177.806 39.6655 180.727 46.5696 180.727C50.9158 180.727 54.2409 179.059 57.3094 176.968L57.8199 180.1H63.449L63.4517 180.077ZM56.2909 173.395C53.733 175.276 50.9237 176.318 48.3631 176.318C45.038 176.318 42.9958 174.65 42.9958 171.72C42.9958 168.791 45.038 166.708 53.225 166.708H56.2909V173.39V173.395ZM87.4866 180.077H78.5376L67.7978 151.466H75.4691L82.1193 169.009L83.6535 174.231C86.9786 166.712 89.534 158.985 90.5577 151.466H98.229C96.1868 160.864 92.5999 171.096 87.4892 180.077H87.4866ZM128.911 180.077V159.613C128.911 154.391 125.332 150.842 116.381 150.842C111.268 150.842 106.919 151.885 103.08 153.138L104.102 156.898C107.17 156.064 110.752 155.23 114.585 155.23C119.444 155.23 121.745 156.898 121.745 160.242V162.958H119.188C106.913 162.958 101.287 166.717 101.287 172.794C101.287 177.806 104.866 180.727 111.77 180.727C116.373 180.727 119.698 179.059 122.767 176.968L123.277 180.1H128.906L128.911 180.077ZM121.751 173.395C119.193 175.276 116.383 176.318 113.823 176.318C110.498 176.318 108.456 174.65 108.456 171.72C108.456 168.791 110.498 166.708 118.685 166.708H121.753V173.39L121.751 173.395ZM27.9098 184.877C25.8677 187.383 22.7965 189.261 18.9609 190.308L15.6358 186.966C18.1938 185.713 20.7491 183.834 21.7728 182.164C22.7939 180.701 23.0505 178.614 23.0505 173.809V141.235H30.7218V173.395C30.7218 179.869 29.9546 182.375 27.9098 184.881V184.877Z" fill="#4E7896"/>
</svg>
