<svg width="149" height="64" viewBox="0 0 149 64" fill="none" xmlns="http://www.w3.org/2000/svg">
<path d="M132.59 27.0203C132.253 27.0203 131.926 27.08 131.636 27.2209L122.465 31.7704C121.872 32.0641 121.511 32.619 121.511 33.209V42.2918C121.511 42.8816 121.872 43.4356 122.465 43.7302L124.86 44.9158C126.024 45.4086 126.453 45.4007 126.983 45.4007C128.705 45.4007 129.689 44.5027 129.689 42.9418V33.9811C129.689 33.8544 129.561 33.7637 129.416 33.7637H128.268C128.12 33.7637 127.995 33.8567 127.995 33.9811V42.9465C127.995 43.6383 127.156 44.3344 125.795 43.7494L123.305 42.495C123.217 42.4539 123.149 42.3788 123.149 42.2944V33.2116C123.149 33.1255 123.217 33.0377 123.305 32.9942L132.457 28.4609C132.543 28.4186 132.645 28.4186 132.729 28.4609L141.881 32.9942C141.968 33.0391 142.037 33.1228 142.037 33.2116V42.2944C142.037 42.3811 141.986 42.4699 141.9 42.5117L132.73 47.045C132.648 47.0852 132.54 47.0852 132.457 47.045L130.101 45.8408C130.031 45.8055 129.935 45.8083 129.867 45.8408C129.217 46.1574 129.095 46.1942 128.485 46.376C128.335 46.4208 128.106 46.4908 128.563 46.7107L131.639 48.2683C131.932 48.4138 132.259 48.4857 132.594 48.4857C132.933 48.4857 133.255 48.4159 133.548 48.2683L142.718 43.735C143.312 43.4384 143.673 42.8865 143.673 42.2967V33.2139C143.673 32.6239 143.312 32.0701 142.718 31.7753L133.548 27.2258C133.26 27.0849 132.931 27.0251 132.594 27.0251L132.59 27.0203ZM135.044 33.5105C132.432 33.5105 130.877 34.4653 130.877 36.0529C130.877 37.7732 132.42 38.2484 134.927 38.4613C137.925 38.7136 138.159 39.0918 138.159 39.5988C138.159 40.4783 137.343 40.8533 135.414 40.8533C132.99 40.8533 132.457 40.3335 132.279 39.2957C132.258 39.1846 132.158 39.0951 132.026 39.0951H130.835C130.763 39.0964 130.695 39.1215 130.644 39.1651C130.593 39.2087 130.564 39.2675 130.563 39.3292C130.563 40.655 131.402 42.2228 135.411 42.2228C138.313 42.2228 139.987 41.2464 139.987 39.5298C139.987 37.8327 138.635 37.374 135.82 37.0539C132.978 36.7285 132.705 36.5727 132.705 36.0001C132.705 35.5277 132.935 34.8958 135.041 34.8958C136.923 34.8958 137.618 35.2446 137.903 36.3344C137.928 36.4367 138.033 36.5204 138.156 36.5204H139.347C139.42 36.5204 139.491 36.4818 139.542 36.4367C139.592 36.3886 139.627 36.3344 139.62 36.2693C139.436 34.3923 137.979 33.5094 135.044 33.5094L135.044 33.5105Z" fill="#83CD29"/>
<path d="M78.6753 15.1136C78.5728 15.1137 78.4722 15.1368 78.3833 15.1805C78.2948 15.225 78.2214 15.2885 78.1702 15.3648C78.1189 15.441 78.0918 15.5275 78.0913 15.6155V28.4114C78.0913 28.537 78.0231 28.6495 77.8964 28.7125C77.8344 28.7436 77.7638 28.7599 77.692 28.7599C77.6201 28.7599 77.5496 28.7436 77.4875 28.7125L75.0536 27.5083C74.8761 27.42 74.6746 27.3736 74.4695 27.3736C74.2644 27.3736 74.0629 27.42 73.8854 27.5083L64.1697 32.3254C63.8065 32.5053 63.5852 32.8517 63.5852 33.2118V42.8463C63.5849 43.0226 63.6387 43.1959 63.7413 43.3486C63.8439 43.5013 63.9916 43.628 64.1694 43.716L73.8854 48.5334C74.0628 48.6218 74.2643 48.6684 74.4695 48.6684C74.6746 48.6684 74.8762 48.6218 75.0536 48.5334L84.7695 43.716C84.9474 43.628 85.095 43.5013 85.1976 43.3486C85.3002 43.1959 85.3541 43.0226 85.3538 42.8463V18.8269C85.3538 18.4615 85.1216 18.1186 84.7503 17.9405L78.9675 15.1636C78.8766 15.1201 78.7759 15.1124 78.6753 15.1134V15.1136ZM16.1737 27.14C15.9883 27.1465 15.8143 27.1742 15.6479 27.2572L5.93225 32.0743C5.75427 32.1622 5.6065 32.2889 5.50393 32.4416C5.40137 32.5944 5.34766 32.7677 5.34826 32.944L5.36801 45.8741C5.36801 46.054 5.47626 46.2209 5.66028 46.3088C5.84078 46.4018 6.06458 46.4018 6.24427 46.3088L12.0076 43.4652C12.3729 43.2792 12.6111 42.9546 12.6111 42.5957V36.5571C12.6111 36.1968 12.8316 35.8667 13.1956 35.6877L15.649 34.4667C15.8263 34.3782 16.0279 34.3319 16.233 34.3328C16.4382 34.3318 16.6399 34.378 16.8172 34.4667L19.2696 35.687C19.633 35.866 19.8536 36.1966 19.8536 36.5565V42.5948C19.8536 42.9542 20.0971 43.2806 20.457 43.4642L26.2204 46.3079C26.4017 46.4009 26.6249 46.4009 26.8043 46.3079C26.9829 46.2195 27.0966 46.0529 27.0966 45.8731L27.1161 32.9435C27.1172 32.7671 27.0638 32.5936 26.9612 32.4408C26.8585 32.288 26.7105 32.1613 26.5321 32.0739L16.8164 27.257C16.6522 27.1742 16.4774 27.1463 16.2906 27.1398H16.1743L16.1737 27.14ZM103.481 27.2572C103.276 27.2567 103.074 27.3029 102.897 27.3911L93.1808 32.2085C92.8182 32.3886 92.5963 32.718 92.5963 33.0779V42.7124C92.5963 43.0746 92.8339 43.4029 93.1998 43.5819L102.838 48.3011C103.194 48.4755 103.628 48.4887 103.987 48.3174L109.828 45.524C110.013 45.4356 110.138 45.2706 110.139 45.0892C110.14 44.9079 110.03 44.7447 109.847 44.6545L100.072 39.8371C99.8891 39.7474 99.7609 39.5658 99.7609 39.3854V36.3728C99.7609 36.1929 99.8908 36.0278 100.072 35.9381L103.109 34.4326C103.29 34.3428 103.512 34.3428 103.694 34.4326L106.733 35.9381C106.822 35.982 106.896 36.0453 106.947 36.1217C106.998 36.198 107.025 36.2846 107.025 36.3728V38.748C107.024 38.8361 107.051 38.9228 107.103 38.9991C107.154 39.0755 107.228 39.1388 107.317 39.1827C107.499 39.2729 107.719 39.2734 107.901 39.1827L113.723 36.2728C114.084 36.0924 114.307 35.7621 114.307 35.4034V33.0786C114.307 32.9024 114.253 32.7292 114.151 32.5765C114.048 32.4239 113.901 32.2971 113.723 32.2089L104.066 27.3916C103.888 27.3033 103.686 27.2571 103.481 27.2577L103.481 27.2572ZM74.4304 34.45C74.4847 34.4498 74.5383 34.4612 74.5862 34.4832L77.9156 36.1392C78.006 36.184 78.0715 36.267 78.0715 36.3565V39.6684C78.0715 39.7583 78.0066 39.8411 77.9156 39.8857L74.5862 41.5417C74.4956 41.5858 74.3849 41.5858 74.294 41.5417L70.9646 39.8857C70.8739 39.8409 70.8087 39.7579 70.8087 39.6684V36.3561C70.8087 36.2663 70.8742 36.184 70.9646 36.1387L74.294 34.483C74.3394 34.4604 74.3795 34.4498 74.4304 34.4498V34.4495V34.45Z" fill="#878787"/>
<path d="M45.3608 27.2068C45.1556 27.2065 44.954 27.2527 44.7762 27.3407L35.0603 32.1413C34.6971 32.3212 34.4763 32.6679 34.4763 33.0277V42.6622C34.4758 42.8385 34.5295 43.0118 34.6321 43.1645C34.7346 43.3172 34.8824 43.4439 35.0603 43.5317L44.7762 48.3491C44.9537 48.4375 45.1552 48.4841 45.3604 48.4841C45.5655 48.4841 45.767 48.4375 45.9445 48.3491L55.6604 43.5317C55.8383 43.4437 55.9859 43.317 56.0885 43.1643C56.1911 43.0116 56.245 42.8383 56.2447 42.662V33.0275C56.2447 32.6672 56.0239 32.3208 55.6602 32.1411L45.9442 27.3405C45.7667 27.252 45.5649 27.2058 45.3597 27.2066L45.3608 27.2068ZM103.462 35.8044C103.423 35.8044 103.38 35.8044 103.345 35.8207L101.476 36.7576C101.441 36.7742 101.412 36.7984 101.392 36.8277C101.371 36.8571 101.36 36.8905 101.359 36.9247V38.7648C101.359 38.8341 101.406 38.8973 101.476 38.9322L103.345 39.8521C103.377 39.8692 103.414 39.8782 103.452 39.8782C103.49 39.8782 103.527 39.8692 103.559 39.8521L105.428 38.9322C105.497 38.898 105.545 38.8341 105.545 38.7648V36.9247C105.545 36.8555 105.498 36.7922 105.428 36.7574L103.559 35.8205C103.524 35.8028 103.501 35.8042 103.462 35.8042L103.462 35.8044Z" fill="#83CD29"/>
</svg>
