<svg width="154" height="55" viewBox="0 0 154 55" fill="none" xmlns="http://www.w3.org/2000/svg">
<path d="M28.8435 33.0675C31.7068 33.0675 34.0279 30.5519 34.0279 27.4487C34.0279 24.3455 31.7068 21.8298 28.8435 21.8298C25.9803 21.8298 23.6591 24.3455 23.6591 27.4487C23.6591 30.5519 25.9803 33.0675 28.8435 33.0675Z" fill="#00D8FF"/>
<path fill-rule="evenodd" clip-rule="evenodd" d="M28.8436 16.0243C35.8044 16.0243 42.2708 17.1068 47.1464 18.9259C53.0208 21.1178 56.6326 24.4402 56.6326 27.4486C56.6326 30.5835 52.8048 34.1131 46.4964 36.3783C41.7272 38.0908 35.4512 38.9848 28.8436 38.9848C22.0691 38.9848 15.654 38.1457 10.831 36.3595C4.72905 34.0991 1.05377 30.5238 1.05377 27.4486C1.05377 24.4646 4.50232 21.1679 10.2942 18.9794C15.1879 17.1302 21.814 16.0243 28.8427 16.0243H28.8436Z" stroke="#00D8FF" stroke-width="1.66272"/>
<path fill-rule="evenodd" clip-rule="evenodd" d="M19.6674 21.7694C23.1449 15.2343 27.2404 9.70404 31.1302 6.03528C35.8168 1.61498 40.2767 -0.116133 42.6812 1.38661C45.1871 2.95274 46.0959 8.30994 44.755 15.3641C43.7422 20.6974 41.3205 27.0361 38.0195 33.2397C34.6351 39.6001 30.7597 45.2038 26.9229 48.8386C22.0679 53.4383 17.3741 55.1029 14.916 53.5665C12.5309 52.0769 11.6188 47.1913 12.763 40.6601C13.7298 35.1417 16.156 28.3684 19.6663 21.7693L19.6674 21.7694Z" stroke="#00D8FF" stroke-width="1.66272"/>
<path fill-rule="evenodd" clip-rule="evenodd" d="M19.6761 33.2565C16.1888 26.7287 13.8145 20.12 12.8235 14.6355C11.6305 8.0273 12.474 2.97486 14.8763 1.46775C17.3796 -0.102977 22.1159 1.71908 27.0852 6.50115C30.8423 10.1166 34.7003 15.5551 38.0109 21.7529C41.4051 28.1071 43.9489 34.5447 44.9385 39.9625C46.1907 46.8185 45.1773 52.057 42.7215 53.5977C40.3388 55.0927 35.9784 53.5099 31.329 49.1736C27.4007 45.51 23.1978 39.849 19.6761 33.2563V33.2565Z" stroke="#00D8FF" stroke-width="1.66272"/>
<path fill-rule="evenodd" clip-rule="evenodd" d="M86.3915 41.8043L80.037 31.3995C83.2486 31.0923 86.1424 28.5703 86.1424 23.9628C86.1424 19.2745 83.0725 16.2739 78.7661 16.2739H69.3089V41.7849H72.2386V31.6484H76.9328L82.9323 41.7849L86.3915 41.8043ZM78.4156 28.8758H72.2401V19.1225H78.4156C81.205 19.1225 83.1098 21.111 83.1098 23.9806C83.1098 26.8502 81.2035 28.8791 78.4156 28.8791V28.8758ZM97.2971 42.2618C100.086 42.2618 102.379 41.2676 104.074 39.4327L102.803 37.5573C101.46 39.0495 99.4853 39.8902 97.5447 39.8902C93.8752 39.8902 91.6153 36.9834 91.4035 33.5044H105.201V32.7769C105.201 27.2317 102.166 22.8699 97.0122 22.8699C92.1419 22.8699 88.6141 27.1929 88.6141 32.5473C88.6141 38.3236 92.2493 42.2473 97.2956 42.2473L97.2971 42.2618ZM102.592 31.3978H91.405C91.5467 28.5687 93.3442 25.2383 96.9808 25.2383C100.864 25.2383 102.557 28.643 102.592 31.3978ZM122.781 41.8027V29.1038C122.781 24.6289 119.782 22.8683 116.182 22.8683C113.392 22.8683 111.205 23.8626 109.371 25.9287L110.606 27.9172C112.123 26.1582 113.783 25.3547 115.83 25.3547C118.3 25.3547 120.136 26.7693 120.136 29.2558V32.5829C118.759 30.8611 116.819 30.0576 114.489 30.0576C111.595 30.0576 108.522 32.0089 108.522 36.1395C108.522 40.1553 111.592 42.2602 114.489 42.2602C116.783 42.2602 118.725 41.3808 120.136 39.6978V41.7995L122.781 41.8027ZM115.442 40.1957C112.972 40.1957 111.241 38.5144 111.241 36.1799C111.241 33.8083 112.972 32.1253 115.442 32.1253C117.312 32.1253 119.111 32.89 120.136 34.421V37.9017C119.113 39.4311 117.312 40.1974 115.442 40.1974V40.1957ZM135.579 42.2618C138.685 42.2618 140.52 40.8844 141.826 39.0495L140.062 37.2906C138.932 38.9347 137.486 39.6994 135.736 39.6994C132.101 39.6994 129.844 36.6391 129.844 32.5473C129.844 28.4555 132.102 25.434 135.736 25.434C137.5 25.434 138.947 26.1615 140.062 27.8428L141.826 26.0839C140.521 24.2473 138.685 22.8715 135.579 22.8715C130.497 22.8715 127.074 27.0797 127.074 32.5489C127.074 38.0569 130.497 42.2489 135.579 42.2489V42.2618ZM149.84 42.2618C151.391 42.2618 152.346 41.7639 153.017 41.0768L152.241 38.9347C151.888 39.3551 151.197 39.6994 150.441 39.6994C149.277 39.6994 148.71 38.7052 148.71 37.3278V25.8527H152.171V23.3291H148.71V18.2802H146.063V23.3291H143.239V25.8543H146.063V37.9421C146.063 40.6969 147.334 42.2651 149.84 42.2651V42.2618Z" fill="#00D8FF"/>
</svg>
