<svg viewBox="0 0 250 128" fill="none" xmlns="http://www.w3.org/2000/svg">
<path d="M81.6042 28.2987C80.5129 30.9783 79.1157 33.5161 77.4417 35.8592C67.4875 25.6704 52.9521 21.7515 39.3896 25.6192C25.8271 29.487 15.3271 40.4608 11.9104 54.4427C8.49376 68.4246 12.6792 83.2 22.875 93.1414L24.3188 94.447C29.8297 99.1998 36.5169 102.299 43.641 103.403C50.7651 104.506 58.0483 103.57 64.6854 100.699C71.3224 97.8274 77.0546 93.1322 81.2479 87.1324C85.4413 81.1327 87.9324 74.0622 88.4458 66.703C89.5083 56.5163 86.5917 43.6267 81.6042 28.303V28.2987ZM28.4313 93.3696C27.5813 94.4448 26.1813 94.8907 24.8854 94.5003C23.5896 94.1099 22.6521 92.9536 22.5104 91.5776C22.3688 90.2016 23.0521 88.8747 24.2396 88.2134C25.4271 87.552 26.8854 87.6928 27.9354 88.5632C29.3667 89.7515 29.5875 91.904 28.4271 93.3718L28.4313 93.3696ZM81.4396 81.3888C71.7979 94.5408 51.2104 90.1056 38.0083 90.7414C38.0083 90.7414 35.6688 90.8822 33.3125 91.279C33.3125 91.279 34.2 90.8907 35.3375 90.4534C44.6083 87.1467 48.9896 86.5131 54.6208 83.5456C65.225 78.0267 75.7104 65.9392 77.8917 53.3739C73.8583 65.4614 61.6104 75.855 50.4604 80.0768C42.8188 82.9611 29.0146 85.7686 29.0146 85.7686L28.4583 85.4635C19.0625 80.7894 18.7708 59.9595 35.8333 53.2416C43.3333 50.2912 50.4688 51.9104 58.5458 49.935C67.1708 47.8358 77.15 41.2182 81.2125 32.5846C85.7542 46.3979 91.225 67.9979 81.4146 81.3952L81.4396 81.3888Z" fill="#68BD45"/>
<path d="M96.7849 77.0297C96.3976 76.7908 96.0805 76.4491 95.8673 76.0407C95.6542 75.6324 95.5528 75.1726 95.5739 74.7101C95.5699 74.3533 95.6357 73.9993 95.7673 73.669C95.899 73.3387 96.0939 73.0387 96.3406 72.7867C96.5872 72.5346 96.8806 72.3357 97.2035 72.2017C97.5264 72.0676 97.8722 72.001 98.2206 72.0059C98.7114 72.0088 99.1932 72.1412 99.6195 72.3905C102.025 74.1315 104.878 75.1108 107.822 75.2066C110.627 75.2066 112.243 73.9653 112.243 72.0424V71.9365C112.243 69.6729 109.213 68.8965 105.877 67.8474C101.673 66.6061 96.9775 64.8633 96.9775 59.287V59.175C96.9775 53.6474 101.454 50.2909 107.119 50.2909C110.23 50.3504 113.282 51.1667 116.024 52.6726C116.491 52.9046 116.884 53.2659 117.161 53.7155C117.437 54.1651 117.585 54.685 117.587 55.2161C117.589 55.577 117.521 55.9347 117.386 56.268C117.251 56.6012 117.051 56.9032 116.8 57.1561C116.548 57.4089 116.25 57.6074 115.922 57.7397C115.594 57.8721 115.244 57.9355 114.891 57.9264C114.44 57.9347 113.994 57.8192 113.601 57.5917C111.281 56.3504 108.906 55.6007 106.937 55.6007C104.405 55.6007 102.944 56.842 102.944 58.4728V58.5848C102.944 60.7389 106.034 61.6249 109.365 62.7287C113.521 64.0674 118.21 65.9854 118.21 71.2331V71.3451C118.21 77.4739 113.57 80.5091 107.638 80.5091C103.762 80.4817 99.9819 79.2697 96.7826 77.0285L96.7849 77.0297ZM120.673 53.6681C120.664 53.2285 120.742 52.7914 120.9 52.3827C121.058 51.974 121.295 51.6018 121.596 51.2879C121.896 50.9741 122.255 50.725 122.652 50.5553C123.048 50.3855 123.473 50.2985 123.902 50.2994C124.335 50.2969 124.764 50.3822 125.164 50.5506C125.565 50.719 125.928 50.967 126.234 51.2803C126.54 51.5937 126.782 51.9661 126.947 52.3759C127.111 52.7858 127.195 53.225 127.192 53.6681V55.6908C129.296 52.6507 132.262 50.2191 136.884 50.2191C143.548 50.2191 150.097 55.6287 150.097 65.355V65.4669C150.097 75.1299 143.619 80.5967 136.884 80.5967C132.13 80.5967 129.159 78.1652 127.192 75.461V85.7568C127.192 86.6436 126.848 87.4941 126.236 88.1212C125.623 88.7482 124.793 89.1005 123.927 89.1005C123.061 89.1005 122.23 88.7482 121.618 88.1212C121.006 87.4941 120.661 86.6436 120.661 85.7568L120.673 53.6681ZM143.492 65.4548V65.3428C143.492 59.7105 139.766 56.0376 135.344 56.0376C130.922 56.0376 127.039 59.8103 127.039 65.3428V65.4548C127.039 71.0372 130.922 74.76 135.344 74.76C139.766 74.76 143.492 71.199 143.492 65.4377V65.4548ZM152.596 53.6742C152.587 53.234 152.664 52.7965 152.823 52.3874C152.982 51.9782 153.219 51.6057 153.52 51.2918C153.822 50.9779 154.181 50.729 154.578 50.5596C154.975 50.3902 155.401 50.3038 155.831 50.3055C156.264 50.3021 156.693 50.3869 157.094 50.555C157.494 50.7231 157.858 50.9711 158.165 51.2846C158.471 51.5981 158.713 51.9708 158.877 52.381C159.041 52.7913 159.124 53.2309 159.121 53.6742V55.2806C159.448 52.7979 163.44 50.3177 166.293 50.3177C166.726 50.2865 167.16 50.3507 167.566 50.5061C167.973 50.6616 168.342 50.9045 168.648 51.2186C168.955 51.5327 169.192 51.9105 169.344 52.3266C169.496 52.7427 169.559 53.1873 169.528 53.6304C169.554 54.396 169.305 55.1447 168.828 55.7353C168.352 56.326 167.681 56.7179 166.942 56.8372C162.302 57.6623 159.122 61.8001 159.122 67.5748V77.1891C159.12 77.6282 159.032 78.0625 158.866 78.467C158.699 78.8715 158.456 79.2382 158.15 79.5461C157.844 79.8539 157.482 80.0969 157.084 80.2609C156.686 80.4249 156.261 80.5068 155.832 80.5018C155.406 80.505 154.984 80.4216 154.59 80.2562C154.197 80.0909 153.839 79.847 153.538 79.5388C153.237 79.2305 152.998 78.864 152.837 78.4606C152.675 78.0573 152.594 77.625 152.597 77.1891L152.596 53.6742ZM171.999 53.6888C171.991 53.2489 172.069 52.8117 172.228 52.4029C172.387 51.9942 172.624 51.622 172.925 51.3083C173.226 50.9945 173.586 50.7455 173.982 50.5759C174.379 50.4062 174.804 50.3192 175.234 50.3201C175.667 50.3175 176.096 50.4029 176.496 50.5713C176.896 50.7397 177.26 50.9877 177.566 51.301C177.872 51.6144 178.114 51.9867 178.278 52.3966C178.443 52.8065 178.526 53.2457 178.524 53.6888V77.2098C178.492 78.0737 178.134 78.8913 177.525 79.4909C176.917 80.0904 176.106 80.4254 175.261 80.4254C174.417 80.4254 173.606 80.0904 172.997 79.4909C172.389 78.8913 172.031 78.0737 171.999 77.2098V53.6888ZM181.819 53.701C181.811 53.2608 181.888 52.8233 182.046 52.4141C182.205 52.005 182.442 51.6325 182.744 51.3186C183.045 51.0047 183.405 50.7557 183.802 50.5863C184.199 50.417 184.625 50.3306 185.054 50.3323C185.487 50.3297 185.916 50.4151 186.316 50.5835C186.717 50.7518 187.08 50.9999 187.386 51.3132C187.692 51.6265 187.934 51.9989 188.099 52.4088C188.263 52.8187 188.347 53.2579 188.344 53.701V55.0713C189.294 53.5533 190.615 52.3162 192.176 51.4827C193.737 50.6492 195.484 50.2484 197.244 50.3201C203.659 50.3201 207.385 54.7379 207.385 61.4861V77.1928C207.392 77.6299 207.314 78.064 207.154 78.4694C206.994 78.8747 206.756 79.2429 206.454 79.5521C206.152 79.8612 205.792 80.1049 205.396 80.2687C205.001 80.4325 204.577 80.513 204.15 80.5054C203.718 80.517 203.289 80.4398 202.887 80.2784C202.485 80.1171 202.118 79.8748 201.81 79.5659C201.501 79.2571 201.255 78.8879 201.088 78.4803C200.921 78.0727 200.835 77.6349 200.836 77.1928V63.5429C200.836 59.0156 198.626 56.4149 194.742 56.4149C190.967 56.4149 188.326 59.1251 188.326 63.6536V77.1891C188.294 78.0531 187.936 78.8706 187.328 79.4702C186.72 80.0697 185.908 80.4047 185.064 80.4047C184.22 80.4047 183.408 80.0697 182.8 79.4702C182.192 78.8706 181.834 78.0531 181.802 77.1891L181.819 53.701ZM236.074 50.2447C235.641 50.2421 235.212 50.3275 234.812 50.4958C234.411 50.6642 234.048 50.9123 233.742 51.2256C233.436 51.5389 233.194 51.9113 233.029 52.3212C232.865 52.731 232.781 53.1702 232.784 53.6133V55.5971C230.68 52.557 227.714 50.1205 223.091 50.1205C216.427 50.1205 209.872 55.5301 209.872 65.2503V65.3623C209.854 75.0338 216.33 80.4921 223.073 80.4921C227.791 80.4921 230.754 78.0909 232.765 75.3989C232.438 80.6527 229.299 83.4263 223.792 83.4263C220.724 83.4578 217.702 82.6598 215.031 81.1127C214.664 80.9279 214.259 80.8345 213.85 80.8401C213.131 80.8399 212.439 81.1279 211.924 81.6425C211.409 82.1571 211.111 82.8576 211.094 83.5942C211.082 84.1772 211.251 84.749 211.578 85.2265C211.905 85.704 212.372 86.0625 212.911 86.2497C216.331 87.9786 220.098 88.8686 223.912 88.8492C229.037 88.8492 233.027 87.6079 235.622 84.9305C237.991 82.4989 239.256 78.8455 239.256 73.9385V53.6C239.264 53.1642 239.188 52.7311 239.032 52.3256C238.876 51.9201 238.643 51.5502 238.347 51.2371C238.051 50.924 237.697 50.674 237.307 50.5014C236.916 50.3288 236.496 50.237 236.07 50.2313L236.074 50.2447ZM224.637 74.7162C220.16 74.7162 216.496 71.126 216.496 65.3818V65.2698C216.496 59.6375 220.216 55.9646 224.637 55.9646C229.058 55.9646 232.942 59.6923 232.942 65.2698V65.3818C232.942 70.9581 229.065 74.7162 224.637 74.7162Z" fill="#68BD45"/>
<path d="M175.265 45.6359C177.082 45.6359 178.555 44.1277 178.555 42.2672C178.555 40.4068 177.082 38.8986 175.265 38.8986C173.448 38.8986 171.975 40.4068 171.975 42.2672C171.975 44.1277 173.448 45.6359 175.265 45.6359Z" fill="#68BD45"/>
</svg>
